<svg width="70" height="58" viewBox="0 0 70 58" fill="none" xmlns="http://www.w3.org/2000/svg">
<path d="M46.25 6.40381e-07C43.7002 -0.000859364 41.2257 0.864516 39.2321 2.45429C37.2385 4.04406 35.8441 6.26391 35.2775 8.75H2.5C1.83696 8.75 1.20107 9.01339 0.732233 9.48223C0.263392 9.95107 0 10.587 0 11.25C0 11.913 0.263392 12.5489 0.732233 13.0178C1.20107 13.4866 1.83696 13.75 2.5 13.75H35.28C35.8486 16.2343 37.2436 18.452 39.2366 20.0404C41.2296 21.6287 43.7027 22.4937 46.2513 22.4937C48.7998 22.4937 51.2729 21.6287 53.2659 20.0404C55.2589 18.452 56.6539 16.2343 57.2225 13.75H67.5C68.163 13.75 68.7989 13.4866 69.2678 13.0178C69.7366 12.5489 70 11.913 70 11.25C70 10.587 69.7366 9.95107 69.2678 9.48223C68.7989 9.01339 68.163 8.75 67.5 8.75H57.2225C56.6559 6.26391 55.2615 4.04406 53.2679 2.45429C51.2743 0.864516 48.7998 -0.000859364 46.25 6.40381e-07ZM34.7225 43.75H67.5C68.163 43.75 68.7989 44.0134 69.2678 44.4822C69.7366 44.9511 70 45.587 70 46.25C70 46.913 69.7366 47.5489 69.2678 48.0178C68.7989 48.4866 68.163 48.75 67.5 48.75H34.7225C34.1539 51.2343 32.7589 53.452 30.7659 55.0404C28.7729 56.6287 26.2998 57.4937 23.7512 57.4937C21.2027 57.4937 18.7296 56.6287 16.7366 55.0404C14.7436 53.452 13.3487 51.2343 12.78 48.75H2.5C1.83696 48.75 1.20107 48.4866 0.732233 48.0178C0.263392 47.5489 0 46.913 0 46.25C0 45.587 0.263392 44.9511 0.732233 44.4822C1.20107 44.0134 1.83696 43.75 2.5 43.75H12.78C13.3487 41.2657 14.7436 39.048 16.7366 37.4596C18.7296 35.8713 21.2027 35.0063 23.7512 35.0063C26.2998 35.0063 28.7729 35.8713 30.7659 37.4596C32.7589 39.048 34.1539 41.2657 34.7225 43.75Z" fill="black"/>
</svg>
