<svg width="63" height="60" viewBox="0 0 63 60" fill="none" xmlns="http://www.w3.org/2000/svg">
<path fill-rule="evenodd" clip-rule="evenodd" d="M0 10C0 7.34784 1.05357 4.8043 2.92893 2.92893C4.8043 1.05357 7.34784 0 10 0H40C45.79 0 51.0033 2.46 54.6567 6.39C55.7214 5.68533 56.8028 5.00624 57.9 4.35333C58.6691 3.91705 59.5801 3.80417 60.4324 4.03953C61.2848 4.27489 62.0087 4.83921 62.445 5.60833C62.8813 6.37746 62.9942 7.2884 62.7588 8.14075C62.5234 8.99311 61.9591 9.71705 61.19 10.1533C60.84 10.3533 58.27 11.9967 58.32 11.9633C59.4298 14.4972 60.0018 17.2338 60 20V50C60 52.6522 58.9464 55.1957 57.0711 57.0711C55.1957 58.9464 52.6522 60 50 60H10C7.34784 60 4.8043 58.9464 2.92893 57.0711C1.05357 55.1957 0 52.6522 0 50V10ZM55.52 13.9133C54.6989 11.8207 53.463 9.91588 51.8867 8.31333C49.9592 9.70368 48.0803 11.1601 46.2533 12.68C40.78 17.2333 34.2067 23.6467 28.79 31.74C27.1062 29.5213 25.151 27.5224 22.97 25.79C21.958 24.9959 20.8822 24.2868 19.7533 23.67C19.27 23.4003 18.7675 23.1663 18.25 22.97C17.4199 22.6654 16.5028 22.7031 15.7004 23.0748C14.8981 23.4464 14.2762 24.1215 13.9717 24.9517C13.6671 25.7818 13.7048 26.6989 14.0764 27.5012C14.4481 28.3036 15.1232 28.9254 15.9533 29.23C16.0367 29.2633 17.1867 29.7367 18.8733 31.05C20.8 32.55 23.46 35.18 26.0267 39.5733C26.3219 40.0791 26.7453 40.4982 27.254 40.7884C27.7627 41.0785 28.339 41.2295 28.9246 41.2261C29.5103 41.2228 30.0847 41.0651 30.5901 40.7691C31.0955 40.4731 31.5139 40.0492 31.8033 39.54C37.0833 30.2333 44.4267 22.8733 50.5167 17.8067C52.1414 16.4545 53.8101 15.1561 55.52 13.9133Z" fill="black"/>
</svg>
