<svg width="70" height="70" viewBox="0 0 70 70" fill="none" xmlns="http://www.w3.org/2000/svg">
<path d="M64.1667 0H5.83333C4.28624 0 2.80251 0.614581 1.70854 1.70854C0.614581 2.80251 0 4.28624 0 5.83333V64.1667C0 65.7138 0.614581 67.1975 1.70854 68.2915C2.80251 69.3854 4.28624 70 5.83333 70H64.1667C65.7138 70 67.1975 69.3854 68.2915 68.2915C69.3854 67.1975 70 65.7138 70 64.1667V5.83333C70 4.28624 69.3854 2.80251 68.2915 1.70854C67.1975 0.614581 65.7138 0 64.1667 0ZM9.05625 15.8885C8.8846 15.5458 8.78219 15.1726 8.7549 14.7902C8.7276 14.4078 8.77594 14.0238 8.89717 13.6602C9.01839 13.2965 9.21011 12.9603 9.46136 12.6708C9.71262 12.3813 10.0185 12.1441 10.3615 11.9729L16.1948 9.05625C16.6396 8.83365 17.134 8.72852 17.6309 8.75085C18.1278 8.77318 18.6108 8.92222 19.0339 9.18382C19.457 9.44541 19.8061 9.81086 20.0481 10.2454C20.2902 10.68 20.417 11.1692 20.4167 11.6667V29.1667C20.4167 29.9402 20.1094 30.6821 19.5624 31.2291C19.0154 31.776 18.2735 32.0833 17.5 32.0833C16.7265 32.0833 15.9846 31.776 15.4376 31.2291C14.8906 30.6821 14.5833 29.9402 14.5833 29.1667V16.3844L12.9719 17.1938C12.6291 17.3654 12.2559 17.4678 11.8735 17.4951C11.4912 17.5224 11.1072 17.4741 10.7435 17.3528C10.3798 17.2316 10.0436 17.0399 9.75412 16.7886C9.46461 16.5374 9.22746 16.2315 9.05625 15.8885ZM21.875 53.9583C22.6485 53.9583 23.3904 54.2656 23.9374 54.8126C24.4844 55.3596 24.7917 56.1015 24.7917 56.875C24.7917 57.6485 24.4844 58.3904 23.9374 58.9374C23.3904 59.4844 22.6485 59.7917 21.875 59.7917H13.125C12.5833 59.7917 12.0524 59.6408 11.5916 59.3561C11.1309 59.0713 10.7585 58.6639 10.5163 58.1794C10.274 57.6949 10.1715 57.1525 10.2201 56.6131C10.2688 56.0736 10.4667 55.5583 10.7917 55.125L18.6922 44.5922C18.8676 44.3466 18.9608 44.0518 18.9583 43.75C18.9577 43.4063 18.8358 43.0739 18.614 42.8113C18.3922 42.5488 18.0848 42.373 17.746 42.3151C17.4073 42.2571 17.0589 42.3206 16.7624 42.4944C16.466 42.6682 16.2404 42.9412 16.1255 43.2651C15.8674 43.9947 15.3299 44.5918 14.6315 44.9251C13.9331 45.2584 13.1309 45.3006 12.4013 45.0424C11.6718 44.7843 11.0746 44.2469 10.7413 43.5484C10.408 42.85 10.3658 42.0478 10.624 41.3182C10.9779 40.3359 11.5387 39.441 12.2685 38.6941C12.9982 37.9472 13.8798 37.3658 14.8537 36.9891C15.8276 36.6125 16.8711 36.4494 17.9135 36.5109C18.9558 36.5724 19.9729 36.8571 20.8957 37.3457C21.8185 37.8342 22.6257 38.5153 23.2625 39.3428C23.8994 40.1704 24.351 41.125 24.587 42.1422C24.823 43.1594 24.8377 44.2154 24.6302 45.2387C24.4227 46.2621 23.9979 47.229 23.3844 48.074L18.9583 53.9583H21.875ZM58.3333 55.4167H32.0833C31.3098 55.4167 30.5679 55.1094 30.0209 54.5624C29.474 54.0154 29.1667 53.2735 29.1667 52.5C29.1667 51.7265 29.474 50.9846 30.0209 50.4376C30.5679 49.8906 31.3098 49.5833 32.0833 49.5833H58.3333C59.1069 49.5833 59.8488 49.8906 60.3957 50.4376C60.9427 50.9846 61.25 51.7265 61.25 52.5C61.25 53.2735 60.9427 54.0154 60.3957 54.5624C59.8488 55.1094 59.1069 55.4167 58.3333 55.4167ZM58.3333 37.9167H32.0833C31.3098 37.9167 30.5679 37.6094 30.0209 37.0624C29.474 36.5154 29.1667 35.7735 29.1667 35C29.1667 34.2265 29.474 33.4846 30.0209 32.9376C30.5679 32.3906 31.3098 32.0833 32.0833 32.0833H58.3333C59.1069 32.0833 59.8488 32.3906 60.3957 32.9376C60.9427 33.4846 61.25 34.2265 61.25 35C61.25 35.7735 60.9427 36.5154 60.3957 37.0624C59.8488 37.6094 59.1069 37.9167 58.3333 37.9167ZM58.3333 20.4167H32.0833C31.3098 20.4167 30.5679 20.1094 30.0209 19.5624C29.474 19.0154 29.1667 18.2735 29.1667 17.5C29.1667 16.7265 29.474 15.9846 30.0209 15.4376C30.5679 14.8906 31.3098 14.5833 32.0833 14.5833H58.3333C59.1069 14.5833 59.8488 14.8906 60.3957 15.4376C60.9427 15.9846 61.25 16.7265 61.25 17.5C61.25 18.2735 60.9427 19.0154 60.3957 19.5624C59.8488 20.1094 59.1069 20.4167 58.3333 20.4167Z" fill="black"/>
</svg>
