<svg width="70" height="55" viewBox="0 0 70 55" fill="none" xmlns="http://www.w3.org/2000/svg">
<path d="M67.5 0H2.5C1.11719 0 0 1.11719 0 2.5V52.5C0 53.8828 1.11719 55 2.5 55H67.5C68.8828 55 70 53.8828 70 52.5V2.5C70 1.11719 68.8828 0 67.5 0ZM21.4062 11.25C24.1641 11.25 26.4062 13.4922 26.4062 16.25C26.4062 19.0078 24.1641 21.25 21.4062 21.25C18.6484 21.25 16.4062 19.0078 16.4062 16.25C16.4062 13.4922 18.6484 11.25 21.4062 11.25ZM61.5547 45.3984C61.4409 45.4941 61.2971 45.5466 61.1484 45.5469H8.84375C8.5 45.5469 8.21875 45.2656 8.21875 44.9219C8.21875 44.7734 8.27344 44.6328 8.36719 44.5156L21.6719 28.7344C21.8906 28.4687 22.2891 28.4375 22.5547 28.6562C22.5781 28.6797 22.6094 28.7031 22.6328 28.7344L30.3984 37.9531L42.75 23.3047C42.9688 23.0391 43.3672 23.0078 43.6328 23.2266C43.6562 23.25 43.6875 23.2734 43.7109 23.3047L61.6484 44.5234C61.8516 44.7812 61.8203 45.1797 61.5547 45.3984Z" fill="black"/>
</svg>
