<svg width="134" height="77" viewBox="0 0 134 77" fill="none" xmlns="http://www.w3.org/2000/svg">
<path d="M38 20.1429C33.264 20.1429 28.722 22.0242 25.3731 25.3731C22.0242 28.722 20.1429 33.264 20.1429 38C20.1429 42.736 22.0242 47.278 25.3731 50.6269C28.722 53.9758 33.264 55.8571 38 55.8571C42.736 55.8571 47.278 53.9758 50.6269 50.6269C53.9758 47.278 55.8571 42.736 55.8571 38C55.8571 33.264 53.9758 28.722 50.6269 25.3731C47.278 22.0242 42.736 20.1429 38 20.1429ZM63 38C63 44.6304 60.3661 50.9893 55.6777 55.6777C50.9893 60.3661 44.6304 63 38 63C31.3696 63 25.0107 60.3661 20.3223 55.6777C15.6339 50.9893 13 44.6304 13 38C13 31.3696 15.6339 25.0107 20.3223 20.3223C25.0107 15.6339 31.3696 13 38 13C44.6304 13 50.9893 15.6339 55.6777 20.3223C60.3661 25.0107 63 31.3696 63 38Z" fill="black"/>
<path d="M119.947 56.8952C120.617 57.5659 120.994 58.4755 120.994 59.4239C120.994 60.3723 120.617 61.2819 119.947 61.9526C119.276 62.6232 118.366 63 117.418 63C116.469 63 115.56 62.6232 114.889 61.9526L96 43.0589L77.1051 61.9466C76.4345 62.6173 75.5248 62.994 74.5763 62.994C73.6278 62.994 72.7182 62.6173 72.0475 61.9466C71.3768 61.276 71 60.3664 71 59.4179C71 58.4695 71.3768 57.5599 72.0475 56.8893L90.9423 38.0015L72.0534 19.1078C71.3827 18.4371 71.006 17.5275 71.006 16.5791C71.006 15.6306 71.3827 14.721 72.0534 14.0504C72.7241 13.3797 73.6338 13.003 74.5823 13.003C75.5308 13.003 76.4404 13.3797 77.1111 14.0504L96 32.9441L114.895 14.0474C115.566 13.3768 116.475 13 117.424 13C118.372 13 119.282 13.3768 119.953 14.0474C120.623 14.7181 121 15.6277 121 16.5761C121 17.5245 120.623 18.4341 119.953 19.1048L101.058 38.0015L119.947 56.8952Z" fill="black"/>
</svg>
